<svg xmlns="http://www.w3.org/2000/svg" xmlns:xlink="http://www.w3.org/1999/xlink" version="1.1" data-diagram-type="ACTIVITY" style="width:835px;height:3201px;background:#FFFFFF;" width="835px" height="3201px" viewBox="0 0 835 3201" zoomAndPan="magnify" preserveAspectRatio="none" contentStyleType="text/css"><?plantuml 1.2026.7beta8?><defs/><g font-family="sans-serif" lengthAdjust="spacing"><g class="title" data-source-line="1"><text x="265.785" y="32.995" fill="#000" font-size="14" textLength="302.326" font-weight="700">Ablauf der E-Bike-Leistungssimulation</text></g><ellipse cx="312.95" cy="62.297" rx="10" ry="10" fill="#222" style="stroke:#222;stroke-width:1;"/><rect x="199.25" y="82.297" width="415.97" height="534.133" fill="none" style="stroke:#000;stroke-width:1.5;"/><path d="M304.064,82.297 L304.064,91.594 L294.064,101.594 L199.25,101.594" style="stroke:#000;stroke-width:1.5;" fill="none"/><text x="202.25" y="96.292" fill="#000" font-size="14" textLength="94.814">Initialisierung</text><path d="M387.753,118.445 L387.753,134.578 L367.753,138.578 L387.753,142.578 L387.753,158.711 A0,0 0 0 0 387.753,158.711 L605.22,158.711 A0,0 0 0 0 605.22,158.711 L605.22,128.445 L595.22,118.445 L387.753,118.445 A0,0 0 0 0 387.753,118.445" style="stroke:#181818;stroke-width:0.5;" fill="#FEFFDD"/><path d="M595.22,118.445 L595.22,128.445 L605.22,128.445 L595.22,118.445" style="stroke:#181818;stroke-width:0.5;" fill="#FEFFDD"/><text x="393.753" y="135.512" fill="#000" font-size="13" textLength="107.771">Gesamtmasse =</text><text x="393.753" y="150.645" fill="#000" font-size="13" textLength="196.466">Fahrermasse + Fahrradmasse</text><rect x="258.146" y="121.594" width="109.607" height="33.969" fill="#FFF" style="stroke:#000;stroke-width:0.5;" rx="12.5" ry="12.5"/><text x="268.146" y="142.732" fill="#000" font-size="12" textLength="89.607">EBike erstellen</text><rect x="257.548" y="178.711" width="110.803" height="33.969" fill="#FFF" style="stroke:#000;stroke-width:0.5;" rx="12.5" ry="12.5"/><text x="267.548" y="199.85" fill="#000" font-size="12" textLength="90.803">Motor erstellen</text><rect x="235.957" y="232.68" width="153.986" height="33.969" fill="#FFF" style="stroke:#000;stroke-width:0.5;" rx="12.5" ry="12.5"/><text x="245.957" y="253.818" fill="#000" font-size="12" textLength="133.986">EBikePhysics erstellen</text><rect x="216.626" y="286.648" width="192.646" height="33.969" fill="#FFF" style="stroke:#000;stroke-width:0.5;" rx="12.5" ry="12.5"/><text x="226.626" y="307.787" fill="#000" font-size="12" textLength="172.646">Leistungsprofile initialisieren</text><rect x="209.25" y="340.617" width="207.4" height="33.969" fill="#FFF" style="stroke:#000;stroke-width:0.5;" rx="12.5" ry="12.5"/><text x="219.25" y="361.756" fill="#000" font-size="12" textLength="187.4">Drehmomentprofil initialisieren</text><rect x="214.239" y="394.586" width="197.422" height="33.969" fill="#FFF" style="stroke:#000;stroke-width:0.5;" rx="12.5" ry="12.5"/><text x="224.239" y="415.725" fill="#000" font-size="12" textLength="177.422">Motorstromprofil initialisieren</text><rect x="237.216" y="448.555" width="151.467" height="33.969" fill="#FFF" style="stroke:#000;stroke-width:0.5;" rx="12.5" ry="12.5"/><text x="247.216" y="469.693" fill="#000" font-size="12" textLength="131.467">Zeitprofil initialisieren</text><rect x="218.206" y="502.523" width="189.488" height="47.938" fill="#FFF" style="stroke:#000;stroke-width:0.5;" rx="12.5" ry="12.5"/><text x="228.206" y="523.662" fill="#000" font-size="12" textLength="115.934">Radradius aus dem</text><text x="228.206" y="537.631" fill="#000" font-size="12" textLength="169.488">Raddurchmesser berechnen</text><rect x="248.373" y="570.461" width="129.154" height="33.969" fill="#FFF" style="stroke:#000;stroke-width:0.5;" rx="12.5" ry="12.5"/><text x="258.373" y="591.6" fill="#000" font-size="12" textLength="109.154">Index i = 1 setzen</text><rect x="16" y="626.43" width="799.896" height="2001.359" fill="none" style="stroke:#000;stroke-width:1.5;"/><path d="M216.217,626.43 L216.217,635.727 L206.217,645.727 L16,645.727" style="stroke:#000;stroke-width:1.5;" fill="none"/><text x="19" y="640.425" fill="#000" font-size="14" textLength="190.217">Streckenabschnitt einlesen</text><rect x="205.01" y="718.437" width="215.879" height="33.969" fill="#FFF" style="stroke:#000;stroke-width:0.5;" rx="12.5" ry="12.5"/><text x="215.01" y="739.576" fill="#000" font-size="12" textLength="195.879">Geschwindigkeit speed auslesen</text><rect x="187.702" y="772.406" width="250.496" height="33.969" fill="#FFF" style="stroke:#000;stroke-width:0.5;" rx="12.5" ry="12.5"/><text x="197.702" y="793.544" fill="#000" font-size="12" textLength="230.496">Beschleunigung acceleration auslesen</text><rect x="229.845" y="826.375" width="166.209" height="33.969" fill="#FFF" style="stroke:#000;stroke-width:0.5;" rx="12.5" ry="12.5"/><text x="239.845" y="847.513" fill="#000" font-size="12" textLength="146.209">Steigung slope auslesen</text><rect x="237.123" y="880.343" width="151.654" height="33.969" fill="#FFF" style="stroke:#000;stroke-width:0.5;" rx="12.5" ry="12.5"/><text x="247.123" y="901.482" fill="#000" font-size="12" textLength="131.654">Zeitdauer dt auslesen</text><rect x="209.51" y="934.312" width="206.879" height="33.969" fill="#FFF" style="stroke:#000;stroke-width:0.5;" rx="12.5" ry="12.5"/><text x="219.51" y="955.451" fill="#000" font-size="12" textLength="186.879">Luftdichte air_density auslesen</text><rect x="226.986" y="988.281" width="171.928" height="33.969" fill="#FFF" style="stroke:#000;stroke-width:0.5;" rx="12.5" ry="12.5"/><text x="236.986" y="1009.419" fill="#000" font-size="12" textLength="151.928">dt im Zeitprofil speichern</text><rect x="168.763" y="1032.25" width="288.373" height="421.953" fill="none" style="stroke:#000;stroke-width:1.5;"/><path d="M384.566,1032.25 L384.566,1041.546 L374.566,1051.546 L168.763,1051.546" style="stroke:#000;stroke-width:1.5;" fill="none"/><text x="171.763" y="1046.245" fill="#000" font-size="14" textLength="205.803">Mechanische Gesamtleistung</text><rect x="187.936" y="1068.546" width="250.027" height="33.969" fill="#FFF" style="stroke:#000;stroke-width:0.5;" rx="12.5" ry="12.5"/><text x="197.936" y="1089.685" fill="#000" font-size="12" textLength="230.027">Gesamtmasse des E-Bikes bestimmen</text><rect x="201.867" y="1122.515" width="222.166" height="47.938" fill="#FFF" style="stroke:#000;stroke-width:0.5;" rx="12.5" ry="12.5"/><text x="211.867" y="1143.654" fill="#000" font-size="12" textLength="202.166">Beschleunigungskraft berechnen;</text><text x="211.867" y="1157.623" fill="#000" font-size="12" textLength="81.621">F_acc = m · a</text><rect x="223.013" y="1190.453" width="179.873" height="47.938" fill="#FFF" style="stroke:#000;stroke-width:0.5;" rx="12.5" ry="12.5"/><text x="233.013" y="1211.591" fill="#000" font-size="12" textLength="159.873">Steigungskraft berechnen;</text><text x="233.013" y="1225.56" fill="#000" font-size="12" textLength="136.635">F_slope = m · g · slope</text><rect x="218.982" y="1258.39" width="187.936" height="47.938" fill="#FFF" style="stroke:#000;stroke-width:0.5;" rx="12.5" ry="12.5"/><text x="228.982" y="1279.529" fill="#000" font-size="12" textLength="161.807">Luftwiderstand berechnen;</text><text x="228.982" y="1293.498" fill="#000" font-size="12" textLength="167.936">F_drag = 0,5 · rho · cwA · v²</text><rect x="196.901" y="1326.328" width="232.098" height="47.938" fill="#FFF" style="stroke:#000;stroke-width:0.5;" rx="12.5" ry="12.5"/><text x="206.901" y="1347.466" fill="#000" font-size="12" textLength="146.818">Gesamtkraft berechnen;</text><text x="206.901" y="1361.435" fill="#000" font-size="12" textLength="212.098">F_total = F_acc + F_slope + F_drag</text><rect x="178.763" y="1394.265" width="268.373" height="47.938" fill="#FFF" style="stroke:#000;stroke-width:0.5;" rx="12.5" ry="12.5"/><text x="188.763" y="1415.404" fill="#000" font-size="12" textLength="248.373">Mechanische Gesamtleistung berechnen;</text><text x="188.763" y="1429.373" fill="#000" font-size="12" textLength="117.246">P_total = F_total · v</text><rect x="49.367" y="1464.203" width="738.528" height="397.367" fill="none" style="stroke:#000;stroke-width:1.5;"/><path d="M185.285,1464.203 L185.285,1473.5 L175.285,1483.5 L49.367,1483.5" style="stroke:#000;stroke-width:1.5;" fill="none"/><text x="52.367" y="1478.198" fill="#000" font-size="14" textLength="125.918">Leistung aufteilen</text><polygon points="247.919,1500.5,377.98,1500.5,389.98,1512.5,377.98,1524.5,247.919,1524.5,235.919,1512.5,247.919,1500.5" fill="#FFF" style="stroke:#000;stroke-width:0.5;stroke-linejoin:miter;stroke-miterlimit:10;"/><text x="247.919" y="1516.308" fill="#000" font-size="11" textLength="130.061">Gesamtleistung > 0 W?</text><text x="226.122" y="1509.905" fill="#000" font-size="11" textLength="9.797">ja</text><text x="389.98" y="1509.905" fill="#000" font-size="11" textLength="23.767">nein</text><rect x="75.241" y="1534.5" width="245.51" height="33.969" fill="#FFF" style="stroke:#000;stroke-width:0.5;" rx="12.5" ry="12.5"/><text x="85.241" y="1555.638" fill="#000" font-size="12" textLength="225.51">Benötigte Leistung = Gesamtleistung</text><path d="M535.057,1534.5 L535.057,1558.199 L515.057,1562.199 L535.057,1566.199 L535.057,1589.898 A0,0 0 0 0 535.057,1589.898 L775.896,1589.898 A0,0 0 0 0 775.896,1589.898 L775.896,1544.5 L765.896,1534.5 L535.057,1534.5 A0,0 0 0 0 535.057,1534.5" style="stroke:#181818;stroke-width:0.5;" fill="#FEFFDD"/><path d="M765.896,1534.5 L765.896,1544.5 L775.896,1544.5 L765.896,1534.5" style="stroke:#181818;stroke-width:0.5;" fill="#FEFFDD"/><text x="541.057" y="1551.566" fill="#000" font-size="13" textLength="211.675">Negative Leistungen werden auf</text><text x="541.057" y="1566.699" fill="#000" font-size="13" textLength="151.385">0 W begrenzt, da keine</text><text x="541.057" y="1581.832" fill="#000" font-size="13" textLength="219.838">Rekuperation berücksichtigt wird.</text><rect x="340.75" y="1545.214" width="174.307" height="33.969" fill="#FFF" style="stroke:#000;stroke-width:0.5;" rx="12.5" ry="12.5"/><text x="350.75" y="1566.353" fill="#000" font-size="12" textLength="154.307">Benötigte Leistung = 0 W</text><polygon points="312.95,1595.898,324.95,1607.898,312.95,1619.898,300.95,1607.898,312.95,1595.898" fill="#FFF" style="stroke:#000;stroke-width:0.5;stroke-linejoin:miter;stroke-miterlimit:10;"/><polygon points="231,1654.117,394.899,1654.117,406.899,1666.921,394.899,1679.726,231,1679.726,219,1666.921,231,1654.117" fill="#FFF" style="stroke:#000;stroke-width:0.5;stroke-linejoin:miter;stroke-miterlimit:10;"/><text x="231" y="1664.327" fill="#000" font-size="11" textLength="163.899">Benötigte Leistung kleiner als</text><text x="231" y="1677.132" fill="#000" font-size="11" textLength="143.338">maximale Fahrerleistung?</text><text x="209.203" y="1664.327" fill="#000" font-size="11" textLength="9.797">ja</text><text x="406.899" y="1664.327" fill="#000" font-size="11" textLength="23.767">nein</text><rect x="66.734" y="1689.726" width="237.324" height="33.969" fill="#FFF" style="stroke:#000;stroke-width:0.5;" rx="12.5" ry="12.5"/><text x="76.734" y="1710.865" fill="#000" font-size="12" textLength="217.324">Fahrerleistung = benötigte Leistung</text><rect x="113.642" y="1757.664" width="143.51" height="33.969" fill="#FFF" style="stroke:#000;stroke-width:0.5;" rx="12.5" ry="12.5"/><text x="123.642" y="1778.802" fill="#000" font-size="12" textLength="123.51">Motorleistung = 0 W</text><rect x="348.568" y="1689.726" width="183.869" height="47.938" fill="#FFF" style="stroke:#000;stroke-width:0.5;" rx="12.5" ry="12.5"/><text x="358.568" y="1710.865" fill="#000" font-size="12" textLength="163.869">Fahrerleistung = maximale</text><text x="358.568" y="1724.833" fill="#000" font-size="12" textLength="86.947">Fahrerleistung</text><rect x="324.059" y="1771.632" width="232.889" height="47.938" fill="#FFF" style="stroke:#000;stroke-width:0.5;" rx="12.5" ry="12.5"/><text x="334.059" y="1792.771" fill="#000" font-size="12" textLength="212.889">Motorleistung = benötigte Leistung</text><text x="334.059" y="1806.74" fill="#000" font-size="12" textLength="95.092">- Fahrerleistung</text><polygon points="312.95,1825.57,324.95,1837.57,312.95,1849.57,300.95,1837.57,312.95,1825.57" fill="#FFF" style="stroke:#000;stroke-width:0.5;stroke-linejoin:miter;stroke-miterlimit:10;"/><rect x="44" y="1871.57" width="673.033" height="360.109" fill="none" style="stroke:#000;stroke-width:1.5;"/><path d="M223.217,1871.57 L223.217,1880.867 L213.217,1890.867 L44,1890.867" style="stroke:#000;stroke-width:1.5;" fill="none"/><text x="47" y="1885.565" fill="#000" font-size="14" textLength="169.217">Motorgrößen berechnen</text><polygon points="248.813,1907.867,377.086,1907.867,389.086,1919.867,377.086,1931.867,248.813,1931.867,236.813,1919.867,248.813,1907.867" fill="#FFF" style="stroke:#000;stroke-width:0.5;stroke-linejoin:miter;stroke-miterlimit:10;"/><text x="248.813" y="1923.675" fill="#000" font-size="11" textLength="128.272">Motorleistung &lt;= 0 W?</text><text x="227.017" y="1917.272" fill="#000" font-size="11" textLength="9.797">ja</text><text x="389.086" y="1917.272" fill="#000" font-size="11" textLength="23.767">nein</text><rect x="61.367" y="1941.867" width="182.428" height="33.969" fill="#FFF" style="stroke:#000;stroke-width:0.5;" rx="12.5" ry="12.5"/><text x="71.367" y="1963.005" fill="#000" font-size="12" textLength="162.428">Motordrehmoment = 0 Nm</text><polygon points="391.817,1941.867,554.819,1941.867,566.819,1953.867,554.819,1965.867,391.817,1965.867,379.817,1953.867,391.817,1941.867" fill="#FFF" style="stroke:#000;stroke-width:0.5;stroke-linejoin:miter;stroke-miterlimit:10;"/><text x="391.817" y="1957.675" fill="#000" font-size="11" textLength="163.002">Geschwindigkeit &lt;= 0,1 m/s?</text><text x="370.021" y="1951.272" fill="#000" font-size="11" textLength="9.797">ja</text><text x="566.819" y="1951.272" fill="#000" font-size="11" textLength="23.767">nein</text><rect x="273.795" y="1975.867" width="182.428" height="33.969" fill="#FFF" style="stroke:#000;stroke-width:0.5;" rx="12.5" ry="12.5"/><text x="283.795" y="1997.005" fill="#000" font-size="12" textLength="162.428">Motordrehmoment = 0 Nm</text><rect x="504.222" y="1975.867" width="154.813" height="47.938" fill="#FFF" style="stroke:#000;stroke-width:0.5;" rx="12.5" ry="12.5"/><text x="514.222" y="1997.005" fill="#000" font-size="12" textLength="134.813">Motorkraft berechnen;</text><text x="514.222" y="2010.974" fill="#000" font-size="12" textLength="134.619">F_motor = P_motor / v</text><rect x="476.223" y="2043.804" width="210.811" height="47.938" fill="#FFF" style="stroke:#000;stroke-width:0.5;" rx="12.5" ry="12.5"/><text x="486.223" y="2064.943" fill="#000" font-size="12" textLength="184.6">Motordrehmoment berechnen;</text><text x="486.223" y="2078.912" fill="#000" font-size="12" textLength="190.811">M_motor = F_motor · Radradius</text><polygon points="473.318,2097.742,485.318,2109.742,473.318,2121.742,461.318,2109.742,473.318,2097.742" fill="#FFF" style="stroke:#000;stroke-width:0.5;stroke-linejoin:miter;stroke-miterlimit:10;"/><polygon points="312.95,2127.742,324.95,2139.742,312.95,2151.742,300.95,2139.742,312.95,2127.742" fill="#FFF" style="stroke:#000;stroke-width:0.5;stroke-linejoin:miter;stroke-miterlimit:10;"/><rect x="192.026" y="2171.742" width="241.848" height="47.938" fill="#FFF" style="stroke:#000;stroke-width:0.5;" rx="12.5" ry="12.5"/><text x="202.026" y="2192.88" fill="#000" font-size="12" textLength="141.568">Motorstrom berechnen;</text><text x="202.026" y="2206.849" fill="#000" font-size="12" textLength="221.848">I_motor = M_motor / Motorkonstante</text><rect x="205.373" y="2241.679" width="215.154" height="352.109" fill="none" style="stroke:#000;stroke-width:1.5;"/><path d="M365.271,2241.679 L365.271,2250.976 L355.271,2260.976 L205.373,2260.976" style="stroke:#000;stroke-width:1.5;" fill="none"/><text x="208.373" y="2255.674" fill="#000" font-size="14" textLength="149.898">Ergebnisse speichern</text><rect x="224.428" y="2277.976" width="177.043" height="33.969" fill="#FFF" style="stroke:#000;stroke-width:0.5;" rx="12.5" ry="12.5"/><text x="234.428" y="2299.115" fill="#000" font-size="12" textLength="157.043">Gesamtleistung speichern</text><rect x="228.213" y="2331.945" width="169.473" height="33.969" fill="#FFF" style="stroke:#000;stroke-width:0.5;" rx="12.5" ry="12.5"/><text x="238.213" y="2353.083" fill="#000" font-size="12" textLength="149.473">Fahrerleistung speichern</text><rect x="230.431" y="2385.914" width="165.037" height="33.969" fill="#FFF" style="stroke:#000;stroke-width:0.5;" rx="12.5" ry="12.5"/><text x="240.431" y="2407.052" fill="#000" font-size="12" textLength="145.037">Motorleistung speichern</text><rect x="215.373" y="2439.882" width="195.154" height="33.969" fill="#FFF" style="stroke:#000;stroke-width:0.5;" rx="12.5" ry="12.5"/><text x="225.373" y="2461.021" fill="#000" font-size="12" textLength="175.154">Motordrehmoment speichern</text><rect x="236.888" y="2493.851" width="152.123" height="33.969" fill="#FFF" style="stroke:#000;stroke-width:0.5;" rx="12.5" ry="12.5"/><text x="246.888" y="2514.99" fill="#000" font-size="12" textLength="132.123">Motorstrom speichern</text><rect x="257.167" y="2547.82" width="111.564" height="33.969" fill="#FFF" style="stroke:#000;stroke-width:0.5;" rx="12.5" ry="12.5"/><text x="267.167" y="2568.958" fill="#000" font-size="12" textLength="91.564">i um 1 erhöhen</text><polygon points="233.659,662.727,392.24,662.727,404.24,674.727,392.24,686.727,233.659,686.727,221.659,674.727,233.659,662.727" fill="#FFF" style="stroke:#000;stroke-width:0.5;stroke-linejoin:miter;stroke-miterlimit:10;"/><text x="316.95" y="696.937" fill="#000" font-size="11" textLength="9.797">ja</text><text x="233.659" y="678.535" fill="#000" font-size="11" textLength="158.582">i &lt; Anzahl der Routendaten?</text><text x="197.892" y="672.132" fill="#000" font-size="11" textLength="23.767">nein</text><rect x="166.915" y="2637.789" width="292.07" height="501.953" fill="none" style="stroke:#000;stroke-width:1.5;"/><path d="M297.883,2637.789 L297.883,2647.085 L287.883,2657.085 L166.915,2657.085" style="stroke:#000;stroke-width:1.5;" fill="none"/><text x="169.915" y="2651.784" fill="#000" font-size="14" textLength="120.969">Nachbearbeitung</text><rect x="200.17" y="2674.085" width="225.559" height="47.938" fill="#FFF" style="stroke:#000;stroke-width:0.5;" rx="12.5" ry="12.5"/><text x="210.17" y="2695.224" fill="#000" font-size="12" textLength="205.559">Nullwert für den ersten GPS-Punkt</text><text x="210.17" y="2709.193" fill="#000" font-size="12" textLength="132.82">vor jedes Profil setzen</text><rect x="228.811" y="2742.023" width="168.277" height="47.938" fill="#FFF" style="stroke:#000;stroke-width:0.5;" rx="12.5" ry="12.5"/><text x="238.811" y="2763.162" fill="#000" font-size="12" textLength="141.762">Profile als neue Spalten</text><text x="238.811" y="2777.13" fill="#000" font-size="12" textLength="148.277">im DataFrame speichern</text><rect x="189.096" y="2809.96" width="247.707" height="33.969" fill="#FFF" style="stroke:#000;stroke-width:0.5;" rx="12.5" ry="12.5"/><text x="199.096" y="2831.099" fill="#000" font-size="12" textLength="227.707">Maximale Gesamtleistung bestimmen</text><rect x="192.881" y="2863.929" width="240.137" height="33.969" fill="#FFF" style="stroke:#000;stroke-width:0.5;" rx="12.5" ry="12.5"/><text x="202.881" y="2885.068" fill="#000" font-size="12" textLength="220.137">Maximale Fahrerleistung bestimmen</text><rect x="195.099" y="2917.898" width="235.701" height="33.969" fill="#FFF" style="stroke:#000;stroke-width:0.5;" rx="12.5" ry="12.5"/><text x="205.099" y="2939.037" fill="#000" font-size="12" textLength="215.701">Maximale Motorleistung bestimmen</text><rect x="176.915" y="2971.867" width="272.07" height="33.969" fill="#FFF" style="stroke:#000;stroke-width:0.5;" rx="12.5" ry="12.5"/><text x="186.915" y="2993.005" fill="#000" font-size="12" textLength="252.07">Maximales Motordrehmoment bestimmen</text><rect x="197.753" y="3025.835" width="230.393" height="33.969" fill="#FFF" style="stroke:#000;stroke-width:0.5;" rx="12.5" ry="12.5"/><text x="207.753" y="3046.974" fill="#000" font-size="12" textLength="210.393">Maximalen Motorstrom bestimmen</text><rect x="237.647" y="3079.804" width="150.605" height="47.938" fill="#FFF" style="stroke:#000;stroke-width:0.5;" rx="12.5" ry="12.5"/><text x="247.647" y="3100.943" fill="#000" font-size="12" textLength="130.605">Leistungsdaten in der</text><text x="247.647" y="3114.912" fill="#000" font-size="12" textLength="109.758">Konsole ausgeben</text><ellipse cx="312.95" cy="3170.742" rx="11" ry="11" fill="none" style="stroke:#222;stroke-width:1;"/><ellipse cx="312.95" cy="3170.742" rx="6" ry="6" fill="#222" style="stroke:#222;stroke-width:1;"/><line x1="312.95" y1="155.563" x2="312.95" y2="178.711" style="stroke:#000;stroke-width:1;"/><polygon points="308.95,168.711,312.95,178.711,316.95,168.711,312.95,172.711" fill="#000" style="stroke:#000;stroke-width:1;stroke-linejoin:miter;stroke-miterlimit:10;"/><line x1="312.95" y1="212.68" x2="312.95" y2="232.68" style="stroke:#000;stroke-width:1;"/><polygon points="308.95,222.68,312.95,232.68,316.95,222.68,312.95,226.68" fill="#000" style="stroke:#000;stroke-width:1;stroke-linejoin:miter;stroke-miterlimit:10;"/><line x1="312.95" y1="266.648" x2="312.95" y2="286.648" style="stroke:#000;stroke-width:1;"/><polygon points="308.95,276.648,312.95,286.648,316.95,276.648,312.95,280.648" fill="#000" style="stroke:#000;stroke-width:1;stroke-linejoin:miter;stroke-miterlimit:10;"/><line x1="312.95" y1="320.617" x2="312.95" y2="340.617" style="stroke:#000;stroke-width:1;"/><polygon points="308.95,330.617,312.95,340.617,316.95,330.617,312.95,334.617" fill="#000" style="stroke:#000;stroke-width:1;stroke-linejoin:miter;stroke-miterlimit:10;"/><line x1="312.95" y1="374.586" x2="312.95" y2="394.586" style="stroke:#000;stroke-width:1;"/><polygon points="308.95,384.586,312.95,394.586,316.95,384.586,312.95,388.586" fill="#000" style="stroke:#000;stroke-width:1;stroke-linejoin:miter;stroke-miterlimit:10;"/><line x1="312.95" y1="428.555" x2="312.95" y2="448.555" style="stroke:#000;stroke-width:1;"/><polygon points="308.95,438.555,312.95,448.555,316.95,438.555,312.95,442.555" fill="#000" style="stroke:#000;stroke-width:1;stroke-linejoin:miter;stroke-miterlimit:10;"/><line x1="312.95" y1="482.523" x2="312.95" y2="502.523" style="stroke:#000;stroke-width:1;"/><polygon points="308.95,492.523,312.95,502.523,316.95,492.523,312.95,496.523" fill="#000" style="stroke:#000;stroke-width:1;stroke-linejoin:miter;stroke-miterlimit:10;"/><line x1="312.95" y1="550.461" x2="312.95" y2="570.461" style="stroke:#000;stroke-width:1;"/><polygon points="308.95,560.461,312.95,570.461,316.95,560.461,312.95,564.461" fill="#000" style="stroke:#000;stroke-width:1;stroke-linejoin:miter;stroke-miterlimit:10;"/><line x1="312.95" y1="72.297" x2="312.95" y2="121.594" style="stroke:#000;stroke-width:1;"/><polygon points="308.95,111.594,312.95,121.594,316.95,111.594,312.95,115.594" fill="#000" style="stroke:#000;stroke-width:1;stroke-linejoin:miter;stroke-miterlimit:10;"/><line x1="312.95" y1="752.406" x2="312.95" y2="772.406" style="stroke:#000;stroke-width:1;"/><polygon points="308.95,762.406,312.95,772.406,316.95,762.406,312.95,766.406" fill="#000" style="stroke:#000;stroke-width:1;stroke-linejoin:miter;stroke-miterlimit:10;"/><line x1="312.95" y1="806.375" x2="312.95" y2="826.375" style="stroke:#000;stroke-width:1;"/><polygon points="308.95,816.375,312.95,826.375,316.95,816.375,312.95,820.375" fill="#000" style="stroke:#000;stroke-width:1;stroke-linejoin:miter;stroke-miterlimit:10;"/><line x1="312.95" y1="860.343" x2="312.95" y2="880.343" style="stroke:#000;stroke-width:1;"/><polygon points="308.95,870.343,312.95,880.343,316.95,870.343,312.95,874.343" fill="#000" style="stroke:#000;stroke-width:1;stroke-linejoin:miter;stroke-miterlimit:10;"/><line x1="312.95" y1="914.312" x2="312.95" y2="934.312" style="stroke:#000;stroke-width:1;"/><polygon points="308.95,924.312,312.95,934.312,316.95,924.312,312.95,928.312" fill="#000" style="stroke:#000;stroke-width:1;stroke-linejoin:miter;stroke-miterlimit:10;"/><line x1="312.95" y1="968.281" x2="312.95" y2="988.281" style="stroke:#000;stroke-width:1;"/><polygon points="308.95,978.281,312.95,988.281,316.95,978.281,312.95,982.281" fill="#000" style="stroke:#000;stroke-width:1;stroke-linejoin:miter;stroke-miterlimit:10;"/><line x1="312.95" y1="1102.515" x2="312.95" y2="1122.515" style="stroke:#000;stroke-width:1;"/><polygon points="308.95,1112.515,312.95,1122.515,316.95,1112.515,312.95,1116.515" fill="#000" style="stroke:#000;stroke-width:1;stroke-linejoin:miter;stroke-miterlimit:10;"/><line x1="312.95" y1="1170.453" x2="312.95" y2="1190.453" style="stroke:#000;stroke-width:1;"/><polygon points="308.95,1180.453,312.95,1190.453,316.95,1180.453,312.95,1184.453" fill="#000" style="stroke:#000;stroke-width:1;stroke-linejoin:miter;stroke-miterlimit:10;"/><line x1="312.95" y1="1238.39" x2="312.95" y2="1258.39" style="stroke:#000;stroke-width:1;"/><polygon points="308.95,1248.39,312.95,1258.39,316.95,1248.39,312.95,1252.39" fill="#000" style="stroke:#000;stroke-width:1;stroke-linejoin:miter;stroke-miterlimit:10;"/><line x1="312.95" y1="1306.328" x2="312.95" y2="1326.328" style="stroke:#000;stroke-width:1;"/><polygon points="308.95,1316.328,312.95,1326.328,316.95,1316.328,312.95,1320.328" fill="#000" style="stroke:#000;stroke-width:1;stroke-linejoin:miter;stroke-miterlimit:10;"/><line x1="312.95" y1="1374.265" x2="312.95" y2="1394.265" style="stroke:#000;stroke-width:1;"/><polygon points="308.95,1384.265,312.95,1394.265,316.95,1384.265,312.95,1388.265" fill="#000" style="stroke:#000;stroke-width:1;stroke-linejoin:miter;stroke-miterlimit:10;"/><line x1="312.95" y1="1022.25" x2="312.95" y2="1068.546" style="stroke:#000;stroke-width:1;"/><polygon points="308.95,1058.546,312.95,1068.546,316.95,1058.546,312.95,1062.546" fill="#000" style="stroke:#000;stroke-width:1;stroke-linejoin:miter;stroke-miterlimit:10;"/><line x1="235.919" y1="1512.5" x2="197.996" y2="1512.5" style="stroke:#000;stroke-width:1;"/><line x1="197.996" y1="1512.5" x2="197.996" y2="1534.5" style="stroke:#000;stroke-width:1;"/><polygon points="193.996,1524.5,197.996,1534.5,201.996,1524.5,197.996,1528.5" fill="#000" style="stroke:#000;stroke-width:1;stroke-linejoin:miter;stroke-miterlimit:10;"/><line x1="389.98" y1="1512.5" x2="427.904" y2="1512.5" style="stroke:#000;stroke-width:1;"/><line x1="427.904" y1="1512.5" x2="427.904" y2="1545.214" style="stroke:#000;stroke-width:1;"/><polygon points="423.904,1535.214,427.904,1545.214,431.904,1535.214,427.904,1539.214" fill="#000" style="stroke:#000;stroke-width:1;stroke-linejoin:miter;stroke-miterlimit:10;"/><line x1="197.996" y1="1568.468" x2="197.996" y2="1607.898" style="stroke:#000;stroke-width:1;"/><line x1="197.996" y1="1607.898" x2="300.95" y2="1607.898" style="stroke:#000;stroke-width:1;"/><polygon points="290.95,1603.898,300.95,1607.898,290.95,1611.898,294.95,1607.898" fill="#000" style="stroke:#000;stroke-width:1;stroke-linejoin:miter;stroke-miterlimit:10;"/><line x1="427.904" y1="1579.183" x2="427.904" y2="1607.898" style="stroke:#000;stroke-width:1;"/><line x1="427.904" y1="1607.898" x2="324.95" y2="1607.898" style="stroke:#000;stroke-width:1;"/><polygon points="334.95,1603.898,324.95,1607.898,334.95,1611.898,330.95,1607.898" fill="#000" style="stroke:#000;stroke-width:1;stroke-linejoin:miter;stroke-miterlimit:10;"/><line x1="185.396" y1="1723.695" x2="185.396" y2="1757.664" style="stroke:#000;stroke-width:1;"/><polygon points="181.396,1747.664,185.396,1757.664,189.396,1747.664,185.396,1751.664" fill="#000" style="stroke:#000;stroke-width:1;stroke-linejoin:miter;stroke-miterlimit:10;"/><line x1="440.503" y1="1737.664" x2="440.503" y2="1771.632" style="stroke:#000;stroke-width:1;"/><polygon points="436.503,1761.632,440.503,1771.632,444.503,1761.632,440.503,1765.632" fill="#000" style="stroke:#000;stroke-width:1;stroke-linejoin:miter;stroke-miterlimit:10;"/><line x1="219" y1="1666.921" x2="185.396" y2="1666.921" style="stroke:#000;stroke-width:1;"/><line x1="185.396" y1="1666.921" x2="185.396" y2="1689.726" style="stroke:#000;stroke-width:1;"/><polygon points="181.396,1679.726,185.396,1689.726,189.396,1679.726,185.396,1683.726" fill="#000" style="stroke:#000;stroke-width:1;stroke-linejoin:miter;stroke-miterlimit:10;"/><line x1="406.899" y1="1666.921" x2="440.503" y2="1666.921" style="stroke:#000;stroke-width:1;"/><line x1="440.503" y1="1666.921" x2="440.503" y2="1689.726" style="stroke:#000;stroke-width:1;"/><polygon points="436.503,1679.726,440.503,1689.726,444.503,1679.726,440.503,1683.726" fill="#000" style="stroke:#000;stroke-width:1;stroke-linejoin:miter;stroke-miterlimit:10;"/><line x1="185.396" y1="1791.632" x2="185.396" y2="1837.57" style="stroke:#000;stroke-width:1;"/><line x1="185.396" y1="1837.57" x2="300.95" y2="1837.57" style="stroke:#000;stroke-width:1;"/><polygon points="290.95,1833.57,300.95,1837.57,290.95,1841.57,294.95,1837.57" fill="#000" style="stroke:#000;stroke-width:1;stroke-linejoin:miter;stroke-miterlimit:10;"/><line x1="440.503" y1="1819.57" x2="440.503" y2="1837.57" style="stroke:#000;stroke-width:1;"/><line x1="440.503" y1="1837.57" x2="324.95" y2="1837.57" style="stroke:#000;stroke-width:1;"/><polygon points="334.95,1833.57,324.95,1837.57,334.95,1841.57,330.95,1837.57" fill="#000" style="stroke:#000;stroke-width:1;stroke-linejoin:miter;stroke-miterlimit:10;"/><line x1="312.95" y1="1619.898" x2="312.95" y2="1654.117" style="stroke:#000;stroke-width:1;"/><polygon points="308.95,1644.117,312.95,1654.117,316.95,1644.117,312.95,1648.117" fill="#000" style="stroke:#000;stroke-width:1;stroke-linejoin:miter;stroke-miterlimit:10;"/><line x1="312.95" y1="1442.203" x2="312.95" y2="1500.5" style="stroke:#000;stroke-width:1;"/><polygon points="308.95,1490.5,312.95,1500.5,316.95,1490.5,312.95,1494.5" fill="#000" style="stroke:#000;stroke-width:1;stroke-linejoin:miter;stroke-miterlimit:10;"/><line x1="581.628" y1="2023.804" x2="581.628" y2="2043.804" style="stroke:#000;stroke-width:1;"/><polygon points="577.628,2033.804,581.628,2043.804,585.628,2033.804,581.628,2037.804" fill="#000" style="stroke:#000;stroke-width:1;stroke-linejoin:miter;stroke-miterlimit:10;"/><line x1="379.817" y1="1953.867" x2="365.009" y2="1953.867" style="stroke:#000;stroke-width:1;"/><line x1="365.009" y1="1953.867" x2="365.009" y2="1975.867" style="stroke:#000;stroke-width:1;"/><polygon points="361.009,1965.867,365.009,1975.867,369.009,1965.867,365.009,1969.867" fill="#000" style="stroke:#000;stroke-width:1;stroke-linejoin:miter;stroke-miterlimit:10;"/><line x1="566.819" y1="1953.867" x2="581.628" y2="1953.867" style="stroke:#000;stroke-width:1;"/><line x1="581.628" y1="1953.867" x2="581.628" y2="1975.867" style="stroke:#000;stroke-width:1;"/><polygon points="577.628,1965.867,581.628,1975.867,585.628,1965.867,581.628,1969.867" fill="#000" style="stroke:#000;stroke-width:1;stroke-linejoin:miter;stroke-miterlimit:10;"/><line x1="365.009" y1="2009.835" x2="365.009" y2="2109.742" style="stroke:#000;stroke-width:1;"/><line x1="365.009" y1="2109.742" x2="461.318" y2="2109.742" style="stroke:#000;stroke-width:1;"/><polygon points="451.318,2105.742,461.318,2109.742,451.318,2113.742,455.318,2109.742" fill="#000" style="stroke:#000;stroke-width:1;stroke-linejoin:miter;stroke-miterlimit:10;"/><line x1="581.628" y1="2091.742" x2="581.628" y2="2109.742" style="stroke:#000;stroke-width:1;"/><line x1="581.628" y1="2109.742" x2="485.318" y2="2109.742" style="stroke:#000;stroke-width:1;"/><polygon points="495.318,2105.742,485.318,2109.742,495.318,2113.742,491.318,2109.742" fill="#000" style="stroke:#000;stroke-width:1;stroke-linejoin:miter;stroke-miterlimit:10;"/><line x1="236.813" y1="1919.867" x2="152.581" y2="1919.867" style="stroke:#000;stroke-width:1;"/><line x1="152.581" y1="1919.867" x2="152.581" y2="1941.867" style="stroke:#000;stroke-width:1;"/><polygon points="148.581,1931.867,152.581,1941.867,156.581,1931.867,152.581,1935.867" fill="#000" style="stroke:#000;stroke-width:1;stroke-linejoin:miter;stroke-miterlimit:10;"/><line x1="389.086" y1="1919.867" x2="473.318" y2="1919.867" style="stroke:#000;stroke-width:1;"/><line x1="473.318" y1="1919.867" x2="473.318" y2="1941.867" style="stroke:#000;stroke-width:1;"/><polygon points="469.318,1931.867,473.318,1941.867,477.318,1931.867,473.318,1935.867" fill="#000" style="stroke:#000;stroke-width:1;stroke-linejoin:miter;stroke-miterlimit:10;"/><line x1="152.581" y1="1975.835" x2="152.581" y2="2139.742" style="stroke:#000;stroke-width:1;"/><line x1="152.581" y1="2139.742" x2="300.95" y2="2139.742" style="stroke:#000;stroke-width:1;"/><polygon points="290.95,2135.742,300.95,2139.742,290.95,2143.742,294.95,2139.742" fill="#000" style="stroke:#000;stroke-width:1;stroke-linejoin:miter;stroke-miterlimit:10;"/><line x1="473.318" y1="2121.742" x2="473.318" y2="2139.742" style="stroke:#000;stroke-width:1;"/><line x1="473.318" y1="2139.742" x2="324.95" y2="2139.742" style="stroke:#000;stroke-width:1;"/><polygon points="334.95,2135.742,324.95,2139.742,334.95,2143.742,330.95,2139.742" fill="#000" style="stroke:#000;stroke-width:1;stroke-linejoin:miter;stroke-miterlimit:10;"/><line x1="312.95" y1="2151.742" x2="312.95" y2="2171.742" style="stroke:#000;stroke-width:1;"/><polygon points="308.95,2161.742,312.95,2171.742,316.95,2161.742,312.95,2165.742" fill="#000" style="stroke:#000;stroke-width:1;stroke-linejoin:miter;stroke-miterlimit:10;"/><line x1="312.95" y1="1849.57" x2="312.95" y2="1907.867" style="stroke:#000;stroke-width:1;"/><polygon points="308.95,1897.867,312.95,1907.867,316.95,1897.867,312.95,1901.867" fill="#000" style="stroke:#000;stroke-width:1;stroke-linejoin:miter;stroke-miterlimit:10;"/><line x1="312.95" y1="2311.945" x2="312.95" y2="2331.945" style="stroke:#000;stroke-width:1;"/><polygon points="308.95,2321.945,312.95,2331.945,316.95,2321.945,312.95,2325.945" fill="#000" style="stroke:#000;stroke-width:1;stroke-linejoin:miter;stroke-miterlimit:10;"/><line x1="312.95" y1="2365.914" x2="312.95" y2="2385.914" style="stroke:#000;stroke-width:1;"/><polygon points="308.95,2375.914,312.95,2385.914,316.95,2375.914,312.95,2379.914" fill="#000" style="stroke:#000;stroke-width:1;stroke-linejoin:miter;stroke-miterlimit:10;"/><line x1="312.95" y1="2419.882" x2="312.95" y2="2439.882" style="stroke:#000;stroke-width:1;"/><polygon points="308.95,2429.882,312.95,2439.882,316.95,2429.882,312.95,2433.882" fill="#000" style="stroke:#000;stroke-width:1;stroke-linejoin:miter;stroke-miterlimit:10;"/><line x1="312.95" y1="2473.851" x2="312.95" y2="2493.851" style="stroke:#000;stroke-width:1;"/><polygon points="308.95,2483.851,312.95,2493.851,316.95,2483.851,312.95,2487.851" fill="#000" style="stroke:#000;stroke-width:1;stroke-linejoin:miter;stroke-miterlimit:10;"/><line x1="312.95" y1="2527.82" x2="312.95" y2="2547.82" style="stroke:#000;stroke-width:1;"/><polygon points="308.95,2537.82,312.95,2547.82,316.95,2537.82,312.95,2541.82" fill="#000" style="stroke:#000;stroke-width:1;stroke-linejoin:miter;stroke-miterlimit:10;"/><line x1="312.95" y1="2219.679" x2="312.95" y2="2277.976" style="stroke:#000;stroke-width:1;"/><polygon points="308.95,2267.976,312.95,2277.976,316.95,2267.976,312.95,2271.976" fill="#000" style="stroke:#000;stroke-width:1;stroke-linejoin:miter;stroke-miterlimit:10;"/><line x1="312.95" y1="686.727" x2="312.95" y2="718.437" style="stroke:#000;stroke-width:1;"/><polygon points="308.95,708.437,312.95,718.437,316.95,708.437,312.95,712.437" fill="#000" style="stroke:#000;stroke-width:1;stroke-linejoin:miter;stroke-miterlimit:10;"/><line x1="312.95" y1="2581.789" x2="312.95" y2="2603.789" style="stroke:#000;stroke-width:1;"/><line x1="312.95" y1="2603.789" x2="799.896" y2="2603.789" style="stroke:#000;stroke-width:1;"/><polygon points="795.896,1634.117,799.896,1624.117,803.896,1634.117,799.896,1630.117" fill="#000" style="stroke:#000;stroke-width:1;stroke-linejoin:miter;stroke-miterlimit:10;"/><line x1="799.896" y1="674.727" x2="799.896" y2="2603.789" style="stroke:#000;stroke-width:1;"/><line x1="799.896" y1="674.727" x2="404.24" y2="674.727" style="stroke:#000;stroke-width:1;"/><polygon points="414.24,670.727,404.24,674.727,414.24,678.727,410.24,674.727" fill="#000" style="stroke:#000;stroke-width:1;stroke-linejoin:miter;stroke-miterlimit:10;"/><line x1="221.659" y1="674.727" x2="32" y2="674.727" style="stroke:#000;stroke-width:1;"/><polygon points="28,1620.117,32,1630.117,36,1620.117,32,1624.117" fill="#000" style="stroke:#000;stroke-width:1;stroke-linejoin:miter;stroke-miterlimit:10;"/><line x1="32" y1="674.727" x2="32" y2="2615.789" style="stroke:#000;stroke-width:1;"/><line x1="32" y1="2615.789" x2="312.95" y2="2615.789" style="stroke:#000;stroke-width:1;"/><line x1="312.95" y1="2615.789" x2="312.95" y2="2674.085" style="stroke:#000;stroke-width:1;"/><polygon points="308.95,2664.085,312.95,2674.085,316.95,2664.085,312.95,2668.085" fill="#000" style="stroke:#000;stroke-width:1;stroke-linejoin:miter;stroke-miterlimit:10;"/><line x1="312.95" y1="604.43" x2="312.95" y2="662.727" style="stroke:#000;stroke-width:1;"/><polygon points="308.95,652.727,312.95,662.727,316.95,652.727,312.95,656.727" fill="#000" style="stroke:#000;stroke-width:1;stroke-linejoin:miter;stroke-miterlimit:10;"/><line x1="312.95" y1="2722.023" x2="312.95" y2="2742.023" style="stroke:#000;stroke-width:1;"/><polygon points="308.95,2732.023,312.95,2742.023,316.95,2732.023,312.95,2736.023" fill="#000" style="stroke:#000;stroke-width:1;stroke-linejoin:miter;stroke-miterlimit:10;"/><line x1="312.95" y1="2789.96" x2="312.95" y2="2809.96" style="stroke:#000;stroke-width:1;"/><polygon points="308.95,2799.96,312.95,2809.96,316.95,2799.96,312.95,2803.96" fill="#000" style="stroke:#000;stroke-width:1;stroke-linejoin:miter;stroke-miterlimit:10;"/><line x1="312.95" y1="2843.929" x2="312.95" y2="2863.929" style="stroke:#000;stroke-width:1;"/><polygon points="308.95,2853.929,312.95,2863.929,316.95,2853.929,312.95,2857.929" fill="#000" style="stroke:#000;stroke-width:1;stroke-linejoin:miter;stroke-miterlimit:10;"/><line x1="312.95" y1="2897.898" x2="312.95" y2="2917.898" style="stroke:#000;stroke-width:1;"/><polygon points="308.95,2907.898,312.95,2917.898,316.95,2907.898,312.95,2911.898" fill="#000" style="stroke:#000;stroke-width:1;stroke-linejoin:miter;stroke-miterlimit:10;"/><line x1="312.95" y1="2951.867" x2="312.95" y2="2971.867" style="stroke:#000;stroke-width:1;"/><polygon points="308.95,2961.867,312.95,2971.867,316.95,2961.867,312.95,2965.867" fill="#000" style="stroke:#000;stroke-width:1;stroke-linejoin:miter;stroke-miterlimit:10;"/><line x1="312.95" y1="3005.835" x2="312.95" y2="3025.835" style="stroke:#000;stroke-width:1;"/><polygon points="308.95,3015.835,312.95,3025.835,316.95,3015.835,312.95,3019.835" fill="#000" style="stroke:#000;stroke-width:1;stroke-linejoin:miter;stroke-miterlimit:10;"/><line x1="312.95" y1="3059.804" x2="312.95" y2="3079.804" style="stroke:#000;stroke-width:1;"/><polygon points="308.95,3069.804,312.95,3079.804,316.95,3069.804,312.95,3073.804" fill="#000" style="stroke:#000;stroke-width:1;stroke-linejoin:miter;stroke-miterlimit:10;"/><line x1="312.95" y1="3127.742" x2="312.95" y2="3159.742" style="stroke:#000;stroke-width:1;"/><polygon points="308.95,3149.742,312.95,3159.742,316.95,3149.742,312.95,3153.742" fill="#000" style="stroke:#000;stroke-width:1;stroke-linejoin:miter;stroke-miterlimit:10;"/><?plantuml-src ZLVDRjiu4BxxAGOzfTXasnxsKjTT99ka2BOEZEHGe31GqE98OaLH1ad5ROeyoxx37hANdkeNsw6eVybA1CIMoO_pyyqF9rPOYN2waImFWQE6YvCpaU39HnJ6vYeoHgIvP5PaQZOpYL1RfbaA9cOysmaLGSYamTOE2wou4_Ox_9W1FMSiI2ATvOh_bSbCmwTOMFGxcIPzVlLC4gnOFHSipHG_VAm2Z9u-rJhRjHSVo6ZBj9tDo3ehd1lmuahH2vF22DJauelIrBSNpdD0RInAYMfUhAhC8cWHnRRu2V013Kjjoen1M9HhbopMgFtQRyKlpNZnim2WueMScTUpp2mPsDFZjQ_YxqO4fhtfT-juR7KM2WgPQ3bHopZN6ATPYifws3Ygq6-ipj8fr6SKXwHum0tZvAN83J3wuvYk5ItnN0TnYkIwXWt1WrWrHwuKnsyWO05lmA2zTpiFdTZSMZgIe68RGoU5jO12IJIegZ3jOkV-aO1tSAhkMIoBjBt9SaiqC_huyoK80qTVsSjP6HxIJ54BOafOBgA470EpHUJEy4Bsl06UEQ34N8c8wAPq3b2YBWfW37vhqGEDpBOuXd0ySfQJZToExN_CGyj545EQCQ6_S5J6bK-3RA0aGAJG2WnvGITHjr4jCfV4FbE27C8oRMMPHXMPRNxghEPeoZPWA8J6YZJjs372aqaq2sqhu6jr-OMueqYdyEi_OFtZ5M-Z1psNvT78VHGhVHcEkPtWhbOOLLXN1kLcH29U7__XpkiuSr_1xjHztVtwjo_B-pzcZCqiaoJ9-qFLNPhdtfoIlgJ3f7S4hrg2_PiphCcBXz68Lcs0qYCa1cLJ5jKZGZZggNqFh-4JLOMDKVcwWDv3qLJxHoiYIi9QnQ9d_hnp3Adjmv6YwdosEB9YFi0E-clxkSQ8Ak-kaK8Ex90wlwl5SEG0gI2M8-fIz_OOE0CgTeKZm1jCycrLrnIN_SyWCQuAoMZO2Sr_7nogktXlKOIpGGJ624YaiqK3NPXhbR9l8cNKoFpLKN4y7QKkbXZT3DKC6VRzNax4OJAM0wMLwLGSdQrdQ1wnTwrEO4gE9tYwAWeraTu_xlz1rLJPM6bqBNgtUBeqYXEylbWB_gxJvnDO5cJdzd5wZzz0-ifCwdws_gTiQ0IDTRYqc4SMi2hVNhNxqAGjRJdBMaubaHfQFIFCnyf9X4_LKcjMwIYxgfKjQwEzVvboju75fphfXOvmGssQIAjlqGEtOfqkhUjsgaGEmRgvDubgSJo9yyoCZG45Ha2UqgY5Eju_nksfe-I462_7APyttLdicWNn1fdUKCgsv-JhN4hgmXR2_K-QQYXxYt5LmOVLxSagLubTgpiAoLTqayIg75NASS-BM9LJBFL2K9WZt6wP915hHGFEERFialwNm85ZRvTLsnpShFMOqiNrGdCGrutD8PY1OGMC8nLqChSxH3NJV36mqdpjPjYr-fkIDvF554d9MGx7ncRR_m40?></g></svg>